Coordinates
version=1
nRows=8
nColumns=40
inDegrees=yes

Units are S.I. units (second, meters, Newtons, ...)
Angles are in degrees.

endheader
time	pelvis_tilt	pelvis_list	pelvis_rotation	pelvis_tx	pelvis_ty	pelvis_tz	hip_flexion_r	hip_adduction_r	hip_rotation_r	knee_angle_r	knee_angle_r_beta	ankle_angle_r	subtalar_angle_r	mtp_angle_r	hip_flexion_l	hip_adduction_l	hip_rotation_l	knee_angle_l	knee_angle_l_beta	ankle_angle_l	subtalar_angle_l	mtp_angle_l	lumbar_extension	lumbar_bending	lumbar_rotation	arm_flex_r	arm_add_r	arm_rot_r	elbow_flex_r	pro_sup_r	wrist_flex_r	wrist_dev_r	arm_flex_l	arm_add_l	arm_rot_l	elbow_flex_l	pro_sup_l	wrist_flex_l	wrist_dev_l
     37.95750000	     -5.82665405	     -5.42796250	      8.17353509	      1.06037832	      0.92922934	      0.47701490	     12.11426125	      2.59996754	    -17.51386235	     15.86349110	     15.86349110	     11.02073875	     -5.20808472	     -1.10829568	     37.52735169	    -10.05163796	      5.81389735	     66.70877502	     66.70877502	      6.84589384	    -19.10261072	     15.14966138	    -11.25980290	      4.19557511	      1.18767244	     23.23023637	    -20.34832832	      1.16708730	     83.20656819	     44.66151354	      0.00000000	      0.00000000	      2.68225492	     -7.14896871	     -8.93255139	     41.54971021	     47.06224252	      0.00000000	      0.00000000
     37.96985714	     -5.98962948	     -5.44950168	      8.39383015	      1.05854731	      0.92918130	      0.47684781	     11.81963102	      2.66045772	    -17.60882621	     15.73523341	     15.73523341	     11.27623867	     -5.27957343	     -1.17119184	     38.67585108	     -9.70214548	      5.72857031	     64.60822395	     64.60822395	      7.58042102	    -19.03983874	     15.16740895	    -11.12185897	      4.10601732	      1.88664698	     24.65259172	    -20.50501792	      0.93452535	     83.84063557	     44.65589820	      0.00000000	      0.00000000	      1.94556567	     -6.89386620	     -8.89006537	     41.02121094	     47.04216335	      0.00000000	      0.00000000
     37.98221429	     -6.14248998	     -5.16951279	      8.57283126	      1.05652956	      0.92935760	      0.47631002	     11.24632223	      2.45175530	    -17.57345894	     15.14466574	     15.14466574	     11.43887645	     -5.10682447	     -1.13907373	     39.56450590	     -9.01244804	      5.46295164	     62.13999974	     62.13999974	      8.13833668	    -19.04757156	     15.71018326	    -11.38005057	      3.81495576	      1.22213664	     27.10076640	    -19.52163058	      0.81319311	     86.76156690	     44.58371036	      0.00000000	      0.00000000	      1.25285887	     -6.82102193	     -8.68591477	     38.22785748	     46.98378040	      0.00000000	      0.00000000
     37.99457143	     -6.34768140	     -5.03400894	      8.74514012	      1.05461942	      0.92920236	      0.47558997	     10.88645146	      2.31672683	    -17.68491958	     14.84275633	     14.84275633	     11.67397314	     -4.98897518	     -1.21690270	     40.34466521	     -8.39394414	      5.38943655	     59.34840668	     59.34840668	      8.62342613	    -18.94487075	     15.99825170	    -11.37666690	      3.72756671	      1.35584885	     28.81721245	    -19.23131898	      0.75017370	     88.87634020	     44.53510209	      0.00000000	      0.00000000	      0.86284630	     -6.61043975	     -8.51376758	     35.89890423	     46.93554067	      0.00000000	      0.00000000
     38.00692857	     -6.62294246	     -4.95769534	      8.88607677	      1.05271105	      0.92879673	      0.47477887	     10.63497358	      2.20471385	    -17.88831723	     14.60361135	     14.60361135	     11.89605567	     -4.65854535	     -1.37349337	     41.01338455	     -7.76484813	      5.49308623	     56.26656432	     56.26656432	      8.86322497	    -18.81858552	     15.70917535	    -11.29141125	      3.64971724	      2.11050193	     30.00003165	    -19.57503627	      0.50260543	     91.62305308	     44.49295445	      0.00000000	      0.00000000	      1.30237919	     -6.21611731	     -8.17006693	     32.22219813	     46.85436550	      0.00000000	      0.00000000
     38.01928571	     -6.79994347	     -4.81128313	      8.98207188	      1.05099681	      0.92848060	      0.47382411	     10.27201356	      2.05416247	    -17.85755862	     14.39396285	     14.39396285	     12.18029585	     -4.60142054	     -1.45249120	     41.29929396	     -7.09443038	      5.63135491	     52.86337610	     52.86337610	      9.12530014	    -18.55306137	     15.62812398	    -11.33165472	      3.48752100	      2.24999904	     31.68051672	    -19.07953682	      0.28916774	     93.28342245	     44.46386514	      0.00000000	      0.00000000	      0.47563872	     -6.08565729	     -8.03787968	     31.31521447	     46.81201762	      0.00000000	      0.00000000
     38.03164286	     -6.99590288	     -4.71112340	      9.04986404	      1.04942760	      0.92797000	      0.47273116	      9.92714253	      1.93304218	    -17.90202993	     14.19328639	     14.19328639	     12.51194482	     -4.42317031	     -1.58361464	     41.41422665	     -6.47883533	      5.86565451	     49.26342310	     49.26342310	      9.28722338	    -18.15004854	     15.39078005	    -11.32372576	      3.40776684	      2.37404362	     33.30987578	    -18.59585667	      0.30741251	     95.00926220	     44.42456140	      0.00000000	      0.00000000	     -0.37039732	     -5.97217504	     -7.85761764	     30.45044152	     46.76310445	      0.00000000	      0.00000000
     38.04400000	     -7.19010288	     -4.68249091	      9.09221561	      1.04806185	      0.92726511	      0.47147994	      9.57670301	      1.84054765	    -18.17017318	     14.01559532	     14.01559532	     12.86831744	     -3.85455923	     -1.80602105	     41.28095197	     -6.00339873	      6.13073292	     45.39991328	     45.39991328	      8.74599219	    -17.60568259	     13.14189497	    -11.30546178	      3.41384184	      2.79015104	     34.62519764	    -18.57073486	      0.66092091	     97.31434517	     44.39044246	      0.00000000	      0.00000000	     -0.95390090	     -5.82645462	     -7.08517180	     29.17979607	     46.59973301	      0.00000000	      0.00000000
